<svg width="48" height="48" viewBox="0 0 256 256" xmlns="http://www.w3.org/2000/svg">
 <!--  This file is replica of the official logo, with dimensions scaled down to 48x48 pixels -->
  <metadata>
    <rdf:RDF xmlns:rdf="http://www.w3.org/1999/02/22-rdf-syntax-ns#"
             xmlns:dc="http://purl.org/dc/elements/1.1/">
      <rdf:Description rdf:about="">
        <dc:title>Official Logo for Mission Vishwakarma</dc:title>
        <dc:creator>Ram Shanker</dc:creator>
        <dc:description>A Bolt camouflaged in Indian Tri-colors.</dc:description>
        <dc:rights>©2024 Ram Shanker. All rights reserved.</dc:rights>
      </rdf:Description>
    </rdf:RDF>
  </metadata>
  <defs>
    <linearGradient id="OrangeToGreen" x1="0%" y1="0%" x2="0%" y2="100%">
      <stop offset="0%" style="stop-color:#F97F51;stop-opacity:1" />
      <stop offset="50%" style="stop-color:white;stop-opacity:1" />
      <stop offset="100%" style="stop-color:#58B19F;stop-opacity:1" />
    </linearGradient>
  </defs>
  <path d="M  44.0  79.502577  
           L  70.0  34.469256
           Q  72.0  31.005154  76.0  31.005154
           L 180.0  31.005154
           Q 184.0  31.005154 186.0  34.469256
           L 212.0  79.502577 
           Z" fill="#F97F51" stroke="#F97F51" stroke-width="1"/>
  <path d="M  44.0  79.502577  
           L 212.0  79.502577 
           L 238.0 124.535898
           Q 240.0 128.0 238.0 131.464101
           L 212.0 176.497422 
           L  44.0 176.497422
           L  18.0 131.464101
           Q  16.0 128.0 18.0 124.535898
           Z" fill="url(#OrangeToGreen)" stroke="url(#OrangeToGreen)" stroke-width="1"/>
  
  <path d="M  44.0 176.497422 
           L  70.0 222.396769
           Q  72.0 224.994845  76.0 224.994845
           L 180.0 224.994845
           Q 184.0 224.994845  186.0 222.396769
           L 212.0 176.497422 
           Z" fill="#58B19F" stroke="#58B19F"  stroke-width="1"/>
  <circle cx="128" cy="128" r="64" fill="#1B9CFC" stroke="#1B9CFC" />
</svg>
