<?xml version="1.0" encoding="UTF-8" standalone="no"?>
<!-- Created with Inkscape (http://www.inkscape.org/) -->

<svg
   width="56.720051mm"
   height="15.428514mm"
   viewBox="0 0 56.720051 15.428514"
   version="1.1"
   id="svg1"
   inkscape:version="1.4.2 (f4327f4, 2025-05-13)"
   sodipodi:docname="icon_3950482947_VishwakaramText.svg"
   xmlns:inkscape="http://www.inkscape.org/namespaces/inkscape"
   xmlns:sodipodi="http://sodipodi.sourceforge.net/DTD/sodipodi-0.dtd"
   xmlns="http://www.w3.org/2000/svg"
   xmlns:svg="http://www.w3.org/2000/svg">
  <sodipodi:namedview
     id="namedview1"
     pagecolor="#ffffff"
     bordercolor="#000000"
     borderopacity="0.25"
     inkscape:showpageshadow="2"
     inkscape:pageopacity="0.0"
     inkscape:pagecheckerboard="0"
     inkscape:deskcolor="#d1d1d1"
     inkscape:document-units="mm"
     inkscape:zoom="1.4378367"
     inkscape:cx="229.16372"
     inkscape:cy="166.56968"
     inkscape:window-width="1920"
     inkscape:window-height="1009"
     inkscape:window-x="-8"
     inkscape:window-y="-8"
     inkscape:window-maximized="1"
     inkscape:current-layer="layer1" />
  <defs
     id="defs1">
    <rect
       x="107.10535"
       y="101.54143"
       width="118.92867"
       height="36.165443"
       id="rect1" />
  </defs>
  <g
     inkscape:label="Layer 1"
     inkscape:groupmode="layer"
     id="layer1"
     transform="translate(-31.993781,-11.534759)">
    <path
       d="m 37.640981,16.379941 v 1.174088 h -2.505274 v 9.38444 h -0.37207 l -0.926041,-1.058333 v -8.326107 h -1.843815 v -1.174088 h 2.124934 q -1.008724,-0.967383 -1.008724,-2.141472 0,-1.389062 1.438672,-2.124934 1.141016,-0.578776 2.670638,-0.578776 2.406055,0 4.39043,1.215429 1.992643,1.207162 3.555338,3.629753 h -0.56224 q -1.579231,-1.860352 -3.373437,-2.786393 -1.794206,-0.93431 -3.795117,-0.93431 -1.513086,0 -2.265495,0.504362 -0.752408,0.496093 -0.752408,1.488281 0,0.8847 0.520898,1.72806 z m 10.021093,0 v 1.174088 h -2.513542 v 9.38444 h -0.347265 l -0.950846,-1.058333 v -2.745052 q -1.413868,0.975651 -2.505274,0.975651 -1.008724,0 -1.992643,-0.992188 -0.975651,-1.000456 -0.975651,-1.86862 0,-0.570507 0.446484,-1.083138 0.446485,-0.51263 1.322917,-0.793749 0.884701,-0.289389 1.496549,-0.289389 1.099675,0 2.207618,1.107943 v -2.637565 h -6.449219 v -1.174088 z m -3.811653,4.787304 v -0.413411 q -0.711068,-0.520899 -1.422136,-0.520899 -0.975651,0 -2.058789,0.537435 -1.083138,0.529167 -1.083138,1.198893 0,0.529167 0.363802,0.884701 0.363802,0.347265 0.851628,0.347265 0.562239,0 1.918229,-0.79375 1.355989,-0.802018 1.430404,-1.240234 z m 1.298111,5.514909 z m 0,-10.302213 z m 9.301757,4.696354 Q 52.95374,20.944003 51.64736,20.447909 l -2.80293,1.951302 -0.992187,-0.802018 2.538346,-1.637109 q -1.066601,-0.388607 -1.604036,-0.917774 -0.529167,-0.537435 -0.529167,-1.223697 0,-0.611849 0.545703,-1.058334 0.545703,-0.454752 1.21543,-0.454752 0.992187,0 1.81901,0.785481 0.826823,0.777214 0.826823,1.670183 0,0.859895 -0.719336,1.405598 0.79375,0.289388 2.182813,0.463021 1.438671,0.181901 2.108398,0.520899 0.669726,0.330729 1.273307,0.926041 v -4.522721 h -4.191992 l -0.777213,-1.174088 h 8.756054 v 1.174088 h -2.513542 v 9.38444 H 58.435576 L 57.509534,25.81399 v -0.79375 q -1.413867,0.975651 -2.505273,0.975651 -1.008724,0 -1.992643,-0.992188 -0.975651,-1.000455 -0.975651,-1.868619 0,-0.644922 0.570507,-1.21543 0.570508,-0.570508 1.843815,-0.843359 z m -2.505273,-2.89388 q 0,-0.471289 -0.322461,-0.768946 -0.314192,-0.297656 -0.802018,-0.297656 -0.545703,0 -0.917773,0.347266 -0.363802,0.338997 -0.363802,0.8847 0,0.429948 0.297656,0.768945 0.297656,0.33073 0.901237,0.578776 1.207161,-0.818554 1.207161,-1.513085 z m 5.564518,4.869986 V 22.63899 q -0.711068,-0.520899 -1.422135,-0.520899 -0.975651,0 -2.058789,0.537435 -1.083138,0.529167 -1.083138,1.198893 0,0.529167 0.363802,0.884701 0.363802,0.347266 0.851627,0.347266 0.56224,0 1.918229,-0.79375 1.35599,-0.802019 1.430404,-1.240235 z m 15.08125,-6.67246 v 1.174088 H 67.66292 v 2.596224 q 0.454752,-0.264583 1.058333,-0.264583 1.02526,0 1.860351,0.868164 0.84336,0.868164 0.84336,2.273763 0,1.107942 -0.694532,2.33164 l -0.926041,-0.909505 q 0.777213,-1.347721 0.777213,-2.356445 0,-0.744141 -0.297656,-1.116211 -0.289388,-0.37207 -0.868164,-0.37207 -0.826823,0 -1.752864,0.818554 v 5.539713 h -0.33073 l -0.967382,-1.099674 v -3.530534 q -1.132748,0.975651 -2.14974,0.975651 -1.016992,0 -1.620573,-0.644921 -0.60358,-0.653191 -0.60358,-1.653646 0,-0.884701 0.553971,-1.389063 0.562239,-0.51263 1.30638,-0.51263 1.422135,0 2.513542,1.322917 v -2.877344 h -5.308203 v -1.174088 z m -6.225976,4.605403 v -0.157096 q -0.636654,-0.570508 -1.628841,-0.570508 -1.025261,0 -1.595769,0.405143 -0.562239,0.396875 -0.562239,0.909505 0,0.446485 0.289388,0.735873 0.297656,0.281119 0.810286,0.281119 0.950847,0 2.687175,-1.604036 z m 1.298112,5.69681 z m 0,-10.302213 z m 15.643487,0 v 1.174088 h -2.513541 v 9.409244 h -0.372071 l -0.926041,-1.083137 v -3.332097 h -3.398242 v 1.405599 q 0,0.496094 -0.322461,0.496094 -0.314193,0 -1.438672,-1.198893 -1.116211,-1.207162 -1.116211,-1.612305 0,-0.256315 0.388607,-0.256315 H 74.7984 v -3.82819 h -2.447396 v -1.174088 z m -7.209895,5.002278 h 3.398242 v -3.82819 h -3.398242 z m 4.696354,5.299935 z m 0,-10.302213 z m 7.920964,0 v 1.174088 h -2.505273 v 9.409244 H 85.902632 L 84.910445,25.81399 V 17.554029 H 83.06663 v -1.174088 z m -2.505273,0 z m 2.042252,-3.108854 -0.28112,0.297656 q -1.207161,-0.992188 -2.00918,-0.992188 -0.65319,0 -1.091406,0.438217 -0.446484,0.438216 -0.446484,1.033528 0,0.446485 0.454752,1.07487 0.446485,0.628385 1.339453,1.430404 h -0.562239 q -1.099675,-0.768946 -1.653646,-1.546159 -0.553971,-0.777214 -0.553971,-1.570964 0,-0.79375 0.51263,-1.314648 0.504362,-0.520899 1.438672,-0.520899 0.669726,0 1.298112,0.338998 0.628385,0.330729 1.554427,1.331185 z m -2.058789,3.108854 z"
       id="text1"
       style="font-size:16.9333px;stroke-width:4"
       aria-label="विश्वकर्मा " />
  </g>
</svg>
