<svg xmlns="http://www.w3.org/2000/svg" viewBox="0 0 64 64">
  <g fill="none" stroke="#2D3436" stroke-width="4" stroke-linecap="round" stroke-linejoin="round">
    <!-- Book Cover -->
    <path d="M16 10h32v44H16z" fill="#F8F9FA"/>
    <!-- Spine -->
    <path d="M16 10v44H12a2 2 0 0 1-2-2V12a2 2 0 0 1 2-2h4z" fill="#B2BEC3"/>
    <!-- Text Lines -->
    <path d="M24 20h16M24 28h16M24 36h16M24 44h10"/>
    <!-- Paragraph Symbol -->
    <path d="M42 48c0-3-2-5-5-5h-3v12m0-6h6c3 0 5-2 5-5s-2-5-5-5h-6" stroke="#0984E3"/>
  </g>
</svg>
